<svg width="16" height="17" viewBox="0 0 16 17" fill="none" xmlns="http://www.w3.org/2000/svg">
<path d="M13.5 6.25C13.5 10.75 8 15.75 8 15.75C8 15.75 2.5 10.75 2.5 6.25C2.5 4.79131 3.07946 3.39236 4.11091 2.36091C5.14236 1.32946 6.54131 0.75 8 0.75C9.45869 0.75 10.8576 1.32946 11.8891 2.36091C12.9205 3.39236 13.5 4.79131 13.5 6.25V6.25Z" stroke="#4B4B4B" stroke-width="1.5" stroke-linecap="round" stroke-linejoin="round"/>
<path d="M8 8.75C9.38071 8.75 10.5 7.63071 10.5 6.25C10.5 4.86929 9.38071 3.75 8 3.75C6.61929 3.75 5.5 4.86929 5.5 6.25C5.5 7.63071 6.61929 8.75 8 8.75Z" stroke="#4B4B4B" stroke-width="1.5" stroke-linecap="round" stroke-linejoin="round"/>
</svg>
